<?xml version="1.0" encoding="utf-8"?>
<svg version="1.1" id="enextgroup" xmlns="http://www.w3.org/2000/svg" xmlns:xlink="http://www.w3.org/1999/xlink" x="0px" y="0px"
	 viewBox="0 0 952 216.5" style="enable-background:new 0 0 952 216.5;" xml:space="preserve">
<style type="text/css">
	.st0{fill:#00A0AF;}
	.st1{fill:#98989A;}
</style>
<path d="M321.2,119.3c3.5,0,6.2-0.5,8.4-0.8c2.1-0.3,4.4-1.3,6.9-2.5c2.5-1.3,4.3-3.5,5.4-6.6c1.1-3.1,1.7-7.2,1.7-12.2
	c0-13-4.8-23.8-14.4-32.3C319.6,56.2,308,52,294.6,52c-14.1,0-25.9,4.7-35.9,14.1c-10,9.4-14.7,20.6-14.7,33.6v23.4
	c0,14.6,5,26.4,15.7,35.4c10.7,9,24.2,13.5,41,13.5c11.5,0,21.1-2.1,29-6.2c7.9-4.1,11.8-8.2,11.8-12.3c0-2.5-1-5-3-7.7
	c-2-2.6-4.4-4-7.2-4c-1.3,0-5,1.6-11,4.7c-6,3.1-12.4,4.7-19.1,4.7c-9.5,0-17.8-2.4-23.8-7.3c-5.9-4.9-9.5-11.5-9.5-19.7v-6V102
	v-7.6c0-6.6,3-12.1,8-16.4c4.9-4.3,11.1-6.4,18-6.4c7.1,0,13.1,2.3,17.9,6.8c4.8,4.5,7.2,10,7.2,16.5c0,2.9-0.6,4.4-1.8,5.4
	c-1.2,1-3.6,1-7.2,1H278v18H321.2z"/>
<path d="M0,123.1c0,14.6,5.3,26.4,16,35.4c10.7,9,24.4,13.5,41.2,13.5c11.5,0,21.2-2.1,29.1-6.2c7.9-4.1,11.8-8.2,11.8-12.3
	c0-2.5-1-5-3-7.7c-2-2.6-4.4-4-7.2-4c-1.3,0-5,1.6-11,4.7c-6,3.1-12.4,4.7-19.1,4.7c-9.5,0-17.2-2.4-23.1-7.3
	c-5.9-4.9-8.8-11.5-8.8-19.7v-6V102v-7.6c0-6.6,2.4-12.1,7.3-16.4c4.9-4.3,10.8-6.4,17.7-6.4c7.1,0,13,2.3,17.7,6.8
	c4.8,4.5,7.1,10,7.1,16.5c0,2.9-0.6,4.4-1.9,5.4c-1.2,1-3.7,1-7.3,1H33v18h44.9c3.5,0,6.2-0.5,8.4-0.8c2.1-0.3,4.4-1.3,6.9-2.5
	c2.5-1.3,4.3-3.5,5.4-6.6c1.2-3.1,1.7-7.2,1.7-12.2c0-13-4.8-23.8-14.4-32.3C76.3,56.2,64.7,52,51.2,52C37.1,52,25,56.7,15,66.1
	C5,75.5,0,86.7,0,99.7"/>
<path class="st0" d="M423.2,111l30.8,43.6c1.1,1.5,1.7,3,1.7,4.7c0,2.8-1.9,5.6-5.7,8.5c-3.8,2.9-7.4,4.3-10.9,4.3
	c-3.1,0-5.3-1-6.7-3L406,128.5 M406,128.5l-26.6,40.6c-1.5,2-3.8,3-6.9,3c-3.1,0-6.6-1.4-10.5-4.2c-3.9-2.8-5.8-5.7-5.8-8.6
	c0-1.6,0.6-3.2,1.7-4.7l30.6-43.8l-29.1-41.4c-1.2-1.5-1.7-3-1.7-4.4c0-3,1.9-5.9,5.8-8.7c3.9-2.9,7.6-4.3,11.2-4.3c3,0,5,1,6.2,3
	L406,94.3l25.2-39.1c1.3-2.1,3.5-3.2,6.4-3.2c3.3,0,6.9,1.4,10.9,4.3c3.9,2.9,5.9,5.8,5.9,8.7c0,1.3-0.6,2.8-1.7,4.4L423.2,111"/>
<path d="M525.8,148.3h-8.6c-6.4,0-10.8-1.4-13.4-3.8c-2.6-2.5-3.8-6.8-3.8-12.7V72.6V53.2V8.4c0-2.3-1.4-4.3-4.1-5.9
	c-2.7-1.6-5.8-2.5-9-2.5c-3.3,0-6.7,0.8-9.4,2.5c-2.6,1.6-4.4,3.6-4.4,5.9v123.3c0,25.6,15.3,38.5,44.1,38.5h8.6
	c3.5,0,6.2-1.1,8.1-3.3c2-2.1,3-4.8,3-7.9c0-3.1-1-5.6-3-7.7C531.9,149.2,529.2,148.3,525.8,148.3"/>
<path d="M509,73.3h20.9c2.1,0,3.9-1.3,5.2-3.1c1.3-1.9,2-4.3,2-6.9c0-2.6-0.7-5.5-2-7.4c-1.3-1.9-3-3.5-5.2-3.5H509V73.3z"/>
<path class="st1" d="M564.2,192.3c0-9.6,5.4-16.4,16.1-20.3c-7.2-2.3-10.7-6.7-10.7-12.9c0-5.7,3-10,9.1-13.1
	c-6.5-5.8-9.8-13.6-9.8-23.3V115c0-8.9,2.8-16.2,8.5-21.8c5.7-5.7,13.1-8.5,22.2-8.5c9,0,16.3,2.8,21.9,8.3c1.7-3.5,3.8-6.2,6.3-8.3
	c2.5-2.1,4.8-3.1,7-3.1c1.6,0,2.8,0.4,3.6,1.3c0.8,0.9,1.2,1.8,1.2,3c0,2.2-1.1,3.5-3.3,3.7c-4.3,0.2-7.9,3-10.7,8.3
	c3.2,4.3,4.8,10,4.8,17.2v7.6c0,8.9-2.9,16.2-8.7,22c-5.8,5.8-13.2,8.7-22.3,8.7c-5.6,0-10.4-1.2-14.6-3.5c-4.4,2.2-6.7,4.9-6.7,8.1
	c0,3.2,2,5.5,6,6.9c4,1.4,8.9,2.3,14.5,2.8c5.7,0.4,11.3,1.1,17,2.1c5.6,1,10.5,3.2,14.5,6.7c4,3.5,6,8.3,6,14.4
	c0,8.1-3.2,14.5-9.5,19c-6.4,4.5-15,6.8-25.8,6.8c-10.9,0-19.7-2.2-26.4-6.7C567.6,205.4,564.2,199.5,564.2,192.3 M572.9,191.4
	c0,5.3,2.5,9.6,7.4,12.9c4.9,3.3,11.7,4.9,20.4,4.9c8.3,0,14.8-1.6,19.4-4.8c4.6-3.2,6.9-7.6,6.9-13.1c0-2.7-0.6-5-1.9-6.9
	c-1.3-1.9-2.9-3.4-4.7-4.5c-1.8-1.1-4.2-2-7.1-2.8c-2.9-0.7-5.4-1.2-7.5-1.4c-2.1-0.2-4.8-0.4-8-0.6l-6.7-0.7
	C579,177.7,572.9,183.5,572.9,191.4 M577.7,122.4c0,6.8,2,12.4,5.9,16.7c4,4.4,9.3,6.6,16.1,6.6c6.7,0,12-2.2,15.9-6.5
	c4-4.3,5.9-9.9,5.9-16.6V115c0-6.7-2-12.1-5.9-16.4c-4-4.3-9.3-6.4-16.1-6.4c-6.8,0-12.1,2.1-16,6.4c-3.9,4.3-5.8,9.7-5.8,16.4
	V122.4z"/>
<path class="st1" d="M654.1,169V89.4c0-2.5,1.5-3.7,4.4-3.7c1.2,0,2.3,0.3,3.2,1c0.9,0.7,1.3,1.6,1.3,2.7v9.4
	c2.2-4.1,5.5-7.5,9.9-10.2c4.4-2.7,9.5-4.1,15.3-4.1h6.7c1.1,0,2.1,0.4,2.9,1.2c0.8,0.8,1.2,1.8,1.2,3c0,1.2-0.4,2.3-1.2,3.1
	c-0.8,0.8-1.8,1.2-2.9,1.2h-6.7c-6.7,0-12.5,2.5-17.5,7.5c-5,5-7.5,11.5-7.5,19.5V169c0,1-0.5,1.9-1.4,2.8c-0.9,0.9-2,1.3-3.2,1.3
	c-1.2,0-2.3-0.4-3.2-1.2C654.5,171,654.1,170.1,654.1,169"/>
<path class="st1" d="M705.6,139.9v-21.5c0-9.1,3.3-17,10-23.8c6.7-6.7,14.6-10.1,23.9-10.1c9.1,0,17.1,3.3,23.9,10
	c6.8,6.7,10.2,14.6,10.2,23.9v21.5c0,9-3.4,17-10.3,23.9c-6.9,6.9-14.8,10.4-23.8,10.4c-9,0-16.9-3.4-23.7-10.3
	C709,157,705.6,149.1,705.6,139.9 M714.7,139.9c0,6.7,2.4,12.6,7.3,17.8c4.9,5.2,10.7,7.9,17.5,7.9c6.8,0,12.7-2.6,17.6-7.9
	c4.9-5.2,7.4-11.2,7.4-17.8v-21.5c0-6.5-2.5-12.4-7.4-17.6c-4.9-5.2-10.8-7.8-17.6-7.8c-6.8,0-12.6,2.6-17.5,7.8
	c-4.9,5.2-7.3,11-7.3,17.6V139.9z"/>
<path class="st1" d="M793.6,140.3V89.6c0-1,0.5-1.9,1.4-2.7c0.9-0.8,2-1.2,3.2-1.2c1.1,0,2.1,0.4,3.1,1.2c0.9,0.8,1.4,1.7,1.4,2.7
	v50.7c0,6.7,2.4,12.5,7.3,17.7c4.9,5.1,10.7,7.7,17.5,7.7c6.8,0,12.6-2.6,17.5-7.7c4.9-5.1,7.3-11,7.3-17.7V89.4
	c0-1,0.5-1.9,1.4-2.6c0.9-0.7,2-1.1,3.2-1.1c1.2,0,2.3,0.4,3.1,1.1c0.9,0.7,1.3,1.6,1.3,2.6v50.9c0,9.1-3.3,17-10,23.8
	c-6.7,6.7-14.6,10.1-23.9,10.1c-9.3,0-17.2-3.4-23.9-10.2C796.9,157.2,793.6,149.3,793.6,140.3"/>
<path class="st1" d="M884.9,212.4v-123c0-2.5,1.5-3.7,4.4-3.7c1.2,0,2.3,0.3,3.1,1c0.9,0.7,1.3,1.6,1.3,2.7v9.2
	c5.3-9.4,13.6-14.1,24.8-14.1c9.1,0,17,3.3,23.5,9.9c6.5,6.6,9.8,14.6,9.8,23.9v21.5c0,9-3.3,17-9.9,23.9
	c-6.6,6.9-14.3,10.4-23.1,10.4c-5.4,0-10.4-1.4-15-4.1c-4.6-2.7-7.9-6-10-10v52.3c0,1-0.5,1.9-1.4,2.8c-0.9,0.9-2,1.3-3.2,1.3
	c-1.2,0-2.3-0.4-3.1-1.2C885.4,214.5,884.9,213.5,884.9,212.4 M894,146.2c0,3.6,2.5,7.7,7.4,12.4c4.9,4.7,10.6,7,16.9,7
	c6.5,0,12.3-2.6,17.2-7.9c4.9-5.2,7.4-11.2,7.4-17.8v-21.5c0-6.5-2.5-12.4-7.5-17.6c-5-5.2-10.8-7.8-17.5-7.8
	c-6.3,0-11.9,2.3-16.7,6.9c-4.8,4.6-7.2,10.8-7.2,18.4V146.2z"/>
<path d="M142.5,55.8c-2.2-1.6-5.1-2.4-8.4-2.4c-3.8,0-7,0.8-9.4,2.3c-2.4,1.6-3.8,3.6-3.8,6v12.1v87.8v0.9c0,2.1,1.5,3.9,3.5,5.3
	c2.2,1.6,5.1,2.4,8.4,2.4c3.8,0,7-0.8,9.4-2.3c2.4-1.6,3.7-3.6,3.7-6v-12.3V61.7v-0.7C144,58.9,144.5,57.2,142.5,55.8"/>
<path d="M208.6,66.2c-8.5-9.5-18.4-14.3-30-14.3c-7.7,0-14.7,1.8-20.5,5.5c-1.4,0.9-4,1.8-4,2.7v21.7c5-4.5,10.4-6.8,16.6-6.8
	c6.7,0,12.3,2.6,17.3,7.9c4.9,5.2,7.2,11.1,7.2,17.7v60.9c0,2.6,1.7,4.7,4.3,6.3c2.6,1.6,5.8,2.3,9.1,2.3c3.6,0,6.5-0.8,9-2.3
	c2.5-1.6,3.6-3.7,3.6-6.3v-61C221,87.1,217.1,75.7,208.6,66.2"/>
</svg>
