<?xml version="1.0" encoding="utf-8"?>
<!-- Generator: Adobe Illustrator 23.0.3, SVG Export Plug-In . SVG Version: 6.00 Build 0)  -->
<svg version="1.1" id="topo-home" xmlns="http://www.w3.org/2000/svg" xmlns:xlink="http://www.w3.org/1999/xlink" x="0px" y="0px"
	 viewBox="0 0 28.91 24.47" style="enable-background:new 0 0 28.91 24.47;" xml:space="preserve">
<style type="text/css">
	.st0{fill:#FFFFFF;}
</style>
<g>
	<g>
		<path class="st0" d="M27.89,0c-1.13,0-2.2,0.36-3.08,0.99c-0.88,0.63-1.56,1.53-1.92,2.6l-0.16,0.48H1.02
			c-0.33,0-0.64,0.16-0.83,0.42C0,4.77-0.05,5.11,0.05,5.42l3.41,10.2c0.12,0.37,0.45,0.64,0.83,0.69l14.96,2.04
			c0.18,0.02,0.32,0.07,0.42,0.13c0.16,0.09,0.26,0.2,0.34,0.35c0.08,0.15,0.12,0.33,0.12,0.52c0,0.14-0.03,0.28-0.07,0.41
			c-0.04,0.1-0.08,0.18-0.14,0.26c-0.08,0.11-0.18,0.2-0.31,0.26c-0.13,0.06-0.29,0.11-0.52,0.11h-1.52c0,0-0.01,0-0.01,0
			c-0.01,0-0.01,0-0.02,0H6.93h0h0h-2.5c-0.56,0-1.02,0.46-1.02,1.02c0,0.56,0.46,1.02,1.02,1.02h0.46l0,0
			c0,1.13,0.91,2.04,2.04,2.04c1.13,0,2.04-0.91,2.04-2.04v0h6.57l0,0c0,1.13,0.91,2.04,2.04,2.04c1.12,0,2.04-0.91,2.04-2.04
			c0-0.01,0-0.02,0-0.04c0.28-0.04,0.55-0.12,0.8-0.23c0.29-0.13,0.56-0.3,0.78-0.51c0.34-0.31,0.58-0.68,0.75-1.07
			c0.16-0.4,0.24-0.82,0.24-1.24c0-0.34-0.05-0.68-0.16-1c-0.16-0.49-0.45-0.96-0.88-1.32c-0.14-0.12-0.3-0.23-0.46-0.32l4.16-12.46
			c0.22-0.66,0.64-1.21,1.17-1.6c0.54-0.39,1.19-0.61,1.88-0.61c0.56,0,1.02-0.46,1.02-1.02C28.91,0.46,28.46,0,27.89,0z M2.44,6.12
			h19.62l-3.37,10.09l-13.5-1.84L2.44,6.12z"/>
	</g>
</g>
</svg>
