<?xml version="1.0" encoding="utf-8"?>
<!-- Generator: Adobe Illustrator 23.0.3, SVG Export Plug-In . SVG Version: 6.00 Build 0)  -->
<svg version="1.1" id="Layer_1" xmlns="http://www.w3.org/2000/svg" xmlns:xlink="http://www.w3.org/1999/xlink" x="0px" y="0px"
	 viewBox="0 0 20 20" style="enable-background:new 0 0 20 20;" xml:space="preserve">
<style type="text/css">
	.st0{fill:#FFFFFF;}
	.st1{fill:none;}
</style>
<path class="st0" d="M15.2,2H4.1C3,2,2.1,2.9,2.1,3.9v11.1C2.1,16.1,3,17,4.1,17h11.1c1.1,0,1.9-0.9,1.9-1.9V3.9
	C17.1,2.9,16.3,2,15.2,2 M12.4,4.3c0-0.4,0.3-0.7,0.7-0.7h1.7c0.4,0,0.7,0.3,0.7,0.7V6c0,0.4-0.3,0.7-0.7,0.7h-1.7
	c-0.4,0-0.7-0.3-0.7-0.7V4.3z M9.7,6.5c1.7,0,3,1.3,3,2.9s-1.4,2.9-3,2.9s-3-1.3-3-2.9C6.6,7.8,8,6.5,9.7,6.5 M15.5,14.7
	c0,0.3-0.3,0.6-0.6,0.6H4.4c-0.3,0-0.6-0.3-0.6-0.6V8.3h1.4C5.1,8.8,5,9.2,5,9.6c0,2.5,2.1,4.5,4.7,4.5s4.7-2,4.7-4.5
	c0-0.4-0.1-0.9-0.2-1.3h1.3V14.7L15.5,14.7z"/>
<rect class="st1" width="20" height="20"/>
</svg>
