<?xml version="1.0" encoding="utf-8"?>
<!-- Generator: Adobe Illustrator 23.0.3, SVG Export Plug-In . SVG Version: 6.00 Build 0)  -->
<svg version="1.1" id="Layer_1" xmlns="http://www.w3.org/2000/svg" xmlns:xlink="http://www.w3.org/1999/xlink" x="0px" y="0px"
	 viewBox="0 0 100 100" style="enable-background:new 0 0 100 100;" xml:space="preserve">
<path d="M87.16,0H12.84C5.77,0,0,5.77,0,12.83v74.33C0,94.23,5.77,100,12.84,100h74.33c7.06,0,12.84-5.77,12.84-12.83V12.83
	C100,5.77,94.22,0,87.16,0 M68.34,15.61c0-2.48,2.02-4.5,4.5-4.5h11.3c2.48,0,4.5,2.03,4.5,4.5v10.78c0,2.48-2.03,4.5-4.5,4.5h-11.3
	c-2.48,0-4.5-2.03-4.5-4.5V15.61z M50.09,30.32c11.09,0,20.08,8.71,20.08,19.46c0,10.75-8.99,19.46-20.08,19.46
	c-11.09,0-20.08-8.71-20.08-19.46C30.01,39.04,39,30.32,50.09,30.32 M88.7,84.53c0,2.19-1.79,3.98-3.98,3.98H15.09
	c-2.19,0-3.98-1.79-3.98-3.98V42.29h9.18c-0.83,2.72-1.28,5.6-1.28,8.58c0,16.63,13.92,30.12,31.08,30.12
	c17.17,0,31.08-13.48,31.08-30.12c0-2.98-0.45-5.86-1.28-8.58h8.8V84.53z"/>
</svg>
