<?xml version="1.0" encoding="utf-8"?>
<!-- Generator: Adobe Illustrator 23.0.3, SVG Export Plug-In . SVG Version: 6.00 Build 0)  -->
<svg version="1.1" id="Layer_1" xmlns="http://www.w3.org/2000/svg" xmlns:xlink="http://www.w3.org/1999/xlink" x="0px" y="0px"
	 viewBox="0 0 145.01 100" style="enable-background:new 0 0 145.01 100;" xml:space="preserve">
<path d="M128.59,44.46c8.15-0.68,13.67-4.38,15.79-9.41c-2.94,1.81-12.06,3.78-17.09,1.9c-0.25-1.18-0.53-2.31-0.8-3.33
	c-3.83-14.1-16.97-25.47-30.73-24.09c1.11-0.45,2.23-0.87,3.37-1.25c1.51-0.54,10.4-1.99,9-5.13c-1.19-2.77-12.05,2.08-14.09,2.72
	c2.7-1.01,7.16-2.76,7.64-5.87c-4.13,0.57-8.2,2.53-11.33,5.37c1.13-1.22,1.99-2.71,2.17-4.31c-11.04,7.06-17.48,21.28-22.7,35.08
	c-4.09-3.98-7.73-7.11-10.99-8.85c-9.13-4.9-20.06-10.01-37.21-16.39c-0.53,5.68,2.8,13.23,12.4,18.25
	c-2.08-0.28-5.88,0.35-8.91,1.07c1.24,6.51,5.28,11.87,16.23,14.46c-5,0.33-7.6,1.48-9.94,3.93c2.28,4.53,7.85,9.85,17.85,8.75
	c-11.13,4.8-4.54,13.7,4.52,12.37C38.34,85.72,13.99,84.54,0,71.18c36.51,49.81,115.89,29.45,127.71-18.52
	c8.87,0.07,14.07-3.07,17.3-6.54C139.91,46.99,132.51,46.09,128.59,44.46"/>
</svg>
