<?xml version="1.0" encoding="utf-8"?>
<!-- Generator: Adobe Illustrator 23.0.3, SVG Export Plug-In . SVG Version: 6.00 Build 0)  -->
<svg version="1.1" id="Layer_1" xmlns="http://www.w3.org/2000/svg" xmlns:xlink="http://www.w3.org/1999/xlink" x="0px" y="0px"
	 viewBox="0 0 612.66 140.62" style="enable-background:new 0 0 612.66 140.62;" xml:space="preserve">
<style type="text/css">
	.st0{fill:#1D1D1B;}
	.st1{fill-rule:evenodd;clip-rule:evenodd;fill:#1D1D1B;}
</style>
<g>
	<path class="st0" d="M237.47,48.31L0,70.31l237.47,22l22-22L237.47,48.31z M235.08,87.52L47.89,70.31h204.4L235.08,87.52z"/>
	<path class="st0" d="M375.19,48.31l-22,22l22,22l237.47-22L375.19,48.31z M360.37,70.31l17.21-17.22l187.19,17.22H360.37z"/>
	<path class="st1" d="M386.11,137.52l0.01-0.01c-8.07-4.59-15.58-9.8-22.87-15.29c-5.28-3.97-10.51-8.15-15.13-12.85
		c-6.73-6.84-10.57-15.12-10.62-25.05c-0.03-5.73-0.65-11.49-1.43-17.17c-0.42-2.97-1.34-6.04-2.77-8.67
		c-6.9-12.6-11.36-26.12-15.5-39.79c-0.98-3.27-2.21-6.47-3.29-9.72c-0.64-1.93-1.4-3.85-1.76-5.83c-0.7-3.83-4.29-4.09-6.41-1.22
		c-2.13-2.87-5.71-2.62-6.41,1.22c-0.36,1.99-1.13,3.9-1.76,5.83c-1.08,3.25-2.32,6.45-3.3,9.72c-4.13,13.67-8.6,27.19-15.5,39.79
		c-1.43,2.63-2.35,5.7-2.76,8.67c-0.79,5.68-1.4,11.44-1.44,17.17c-0.04,9.92-3.89,18.21-10.62,25.05
		c-4.62,4.7-9.85,8.88-15.13,12.85c-7.29,5.49-14.79,10.7-22.88,15.29l0.02,0.01c0,0-1.67,0.96-1.35,2.03
		c0.3,1.01,2.08,1.06,2.27,1.07c18.99,0,45.46-0.03,45.46-0.03s19.16-13.84,23.86-17.51c3.09-2.41,5.63-4.97,6.46-8.98
		c0.31-1.49,1.49-3.34,2.37-5.15l-2.09-37.22l-17.31-3.95l17.49-4l0.04,0.1l2.6-15.56l2.58,15.56l0.04-0.1l17.49,4l-17.31,3.95
		l-2.09,37.21c0.89,1.81,2.06,3.66,2.37,5.16c0.83,4,3.37,6.57,6.46,8.98c4.69,3.67,23.85,17.51,23.85,17.51s26.48,0.02,45.46,0.03
		c0.2,0,1.96-0.05,2.26-1.07C387.78,138.48,386.11,137.52,386.11,137.52"/>
</g>
</svg>
