<?xml version="1.0" encoding="utf-8"?>
<!-- Generator: Adobe Illustrator 23.0.3, SVG Export Plug-In . SVG Version: 6.00 Build 0)  -->
<svg version="1.1" id="Layer_1" xmlns="http://www.w3.org/2000/svg" xmlns:xlink="http://www.w3.org/1999/xlink" x="0px" y="0px"
	 viewBox="0 0 15.6 15.6" style="enable-background:new 0 0 15.6 15.6;" xml:space="preserve">
<style type="text/css">
	.st0{fill:#FFFFFF;}
</style>
<g>
	<path class="st0" d="M15.2,13.3L12,10.2c0,0,0,0-0.1,0c1.7-2.5,1.4-6-0.8-8.2c-2.6-2.6-6.7-2.6-9.2,0s-2.6,6.7,0,9.2
		c2.2,2.2,5.7,2.5,8.2,0.8c0,0,0,0,0,0.1l3.2,3.2c0.5,0.5,1.3,0.5,1.9,0C15.7,14.7,15.7,13.9,15.2,13.3z M3.5,9.5
		c-1.7-1.7-1.7-4.4,0-6c1.7-1.7,4.4-1.7,6,0c1.7,1.7,1.7,4.4,0,6C7.9,11.2,5.2,11.2,3.5,9.5z"/>
</g>
</svg>
