<?xml version="1.0" encoding="utf-8"?>
<!-- Generator: Adobe Illustrator 23.0.3, SVG Export Plug-In . SVG Version: 6.00 Build 0)  -->
<svg version="1.1" id="Layer_1" xmlns="http://www.w3.org/2000/svg" xmlns:xlink="http://www.w3.org/1999/xlink" x="0px" y="0px"
	 viewBox="0 0 20 20" style="enable-background:new 0 0 20 20;" xml:space="preserve">
<style type="text/css">
	.st0{fill:none;}
</style>
<rect class="st0" width="20" height="20"/>
<path d="M15.2,2H4C3,2,2.1,2.9,2.1,3.9v11.1C2.1,16.1,3,17,4,17h11.1c1.1,0,1.9-0.9,1.9-1.9V3.9C17.1,2.9,16.2,2,15.2,2 M12.4,4.3
	c0-0.4,0.3-0.7,0.7-0.7h1.7c0.4,0,0.7,0.3,0.7,0.7V6c0,0.4-0.3,0.7-0.7,0.7H13c-0.4,0-0.7-0.3-0.7-0.7V4.3z M9.6,6.5
	c1.7,0,3,1.3,3,2.9s-1.3,2.9-3,2.9s-3-1.3-3-2.9C6.6,7.9,7.9,6.5,9.6,6.5 M15.4,14.7c0,0.3-0.3,0.6-0.6,0.6H4.4
	c-0.3,0-0.6-0.3-0.6-0.6V8.3h1.4C5,8.8,5,9.2,5,9.6c0,2.5,2.1,4.5,4.7,4.5c2.6,0,4.7-2,4.7-4.5c0-0.4-0.1-0.9-0.2-1.3h1.3L15.4,14.7
	L15.4,14.7z"/>
<rect class="st0" width="20" height="20"/>
</svg>
