<?xml version="1.0" encoding="utf-8"?>
<!-- Generator: Adobe Illustrator 23.0.3, SVG Export Plug-In . SVG Version: 6.00 Build 0)  -->
<svg version="1.1" id="Layer_1" xmlns="http://www.w3.org/2000/svg" xmlns:xlink="http://www.w3.org/1999/xlink" x="0px" y="0px"
	 viewBox="0 0 20 20" style="enable-background:new 0 0 20 20;" xml:space="preserve">
<style type="text/css">
	.st0{fill:none;}
	.st1{fill:#FFFFFF;}
</style>
<rect class="st0" width="20" height="20"/>
<path class="st1" d="M17.7,8.8c1.1-0.1,1.9-0.6,2.2-1.3c-0.4,0.2-1.7,0.5-2.4,0.3c0-0.2-0.1-0.3-0.1-0.5c-0.5-1.9-2.3-3.5-4.2-3.3
	c0.2-0.1,0.3-0.1,0.5-0.2c0.2-0.1,1.4-0.3,1.2-0.7c-0.2-0.4-1.7,0.3-2,0.4c0.4-0.1,1-0.4,1-0.8c-0.6,0.1-1.1,0.3-1.6,0.7
	c0.2-0.2,0.3-0.4,0.3-0.6c-1.5,1-2.4,2.9-3.1,4.8c-0.6-0.6-1.1-1-1.5-1.2C6.9,5.7,5.3,5,3,4.2C2.9,4.9,3.4,6,4.7,6.7
	c-0.3,0-0.8,0.1-1.2,0.2c0.2,0.9,0.7,1.6,2.2,2C5,8.9,4.6,9,4.3,9.4c0.3,0.6,1.1,1.4,2.5,1.2c-1.5,0.7-0.6,1.9,0.6,1.7
	c-2.1,2.2-5.5,2-7.4,0.2c5,6.9,16,4.1,17.6-2.6c1.2,0,1.9-0.4,2.4-0.9C19.3,9.1,18.3,9,17.7,8.8"/>
</svg>
